<?xml version="1.0" standalone="no"?>
<!DOCTYPE svg PUBLIC "-//W3C//DTD SVG 20010904//EN"
 "http://www.w3.org/TR/2001/REC-SVG-20010904/DTD/svg10.dtd">
<svg version="1.0" xmlns="http://www.w3.org/2000/svg"
 width="288.000000pt" height="288.000000pt" viewBox="0 0 288.000000 288.000000"
 preserveAspectRatio="xMidYMid meet">
<metadata>
Created by potrace 1.14, written by Peter Selinger 2001-2017
</metadata>
<g transform="translate(0.000000,288.000000) scale(0.100000,-0.100000)"
fill="#000000" stroke="none">
<path d="M1299 2680 c-176 -16 -396 -97 -562 -207 -173 -115 -345 -321 -428
-514 -71 -164 -91 -260 -96 -464 -6 -199 6 -298 52 -444 l26 -81 -20 -67 c-44
-146 -52 -295 -26 -468 19 -125 41 -204 60 -212 8 -3 77 22 154 56 138 61 139
61 208 55 45 -4 83 -2 107 6 34 11 43 9 139 -34 294 -130 594 -150 897 -59
193 57 368 161 513 302 223 217 343 489 363 818 22 364 -106 712 -353 959
-200 200 -492 330 -794 354 -68 5 -131 9 -139 8 -8 0 -54 -4 -101 -8z m381
-191 c135 -22 287 -88 379 -166 l33 -29 -75 4 c-83 4 -175 -16 -198 -45 -12
-15 -12 -16 4 -10 75 28 201 15 293 -30 278 -136 328 -519 97 -723 -126 -110
-313 -139 -456 -70 -53 26 -59 18 -10 -14 84 -56 209 -81 314 -63 l46 8 -13
-85 c-18 -108 -63 -250 -112 -346 -113 -224 -282 -390 -470 -460 -94 -35 -90
-35 -102 9 -13 50 -69 111 -101 111 -26 0 -69 -25 -69 -40 0 -5 13 -11 30 -15
16 -3 43 -22 60 -41 24 -28 30 -44 30 -80 0 -48 -14 -84 -32 -84 -6 0 -30 18
-53 39 -40 36 -95 61 -137 61 -22 0 -22 -1 -3 43 8 20 15 56 15 81 0 36 -5 48
-26 65 -27 21 -69 28 -78 13 -3 -5 4 -27 16 -50 34 -70 0 -155 -71 -180 -36
-13 -41 -8 -41 37 0 57 -18 107 -50 141 -26 28 -35 32 -65 27 -32 -5 -38 -2
-70 40 -19 25 -35 49 -35 53 0 3 26 14 58 24 78 25 458 166 564 211 152 64
228 155 228 274 0 49 -4 65 -24 88 l-24 28 5 -66 c11 -132 -57 -200 -297 -302
-109 -47 -522 -197 -541 -197 -15 0 -66 115 -90 205 -28 108 -31 310 -5 405
34 125 111 242 208 315 l57 43 45 -44 c88 -84 205 -123 325 -108 l66 8 -73 7
c-170 16 -324 147 -368 311 -18 70 -18 187 2 254 39 135 155 248 298 289 135
39 296 1 400 -95 51 -48 61 -35 20 25 -35 51 -46 61 -111 101 l-57 34 100 0
c54 0 128 -5 164 -11z m-888 -526 c4 -70 11 -111 26 -145 l21 -47 -63 -45
c-70 -50 -118 -100 -161 -168 -17 -27 -33 -48 -37 -48 -18 0 39 231 82 333 33
78 110 217 121 217 3 0 9 -44 11 -97z m1548 -598 c-69 -483 -301 -826 -645
-953 -52 -20 -191 -43 -231 -40 l-39 3 50 17 c246 80 436 252 564 512 60 123
110 285 118 386 3 41 8 80 12 86 3 7 32 33 63 58 32 26 70 68 85 94 l28 47 3
-65 c2 -36 -2 -101 -8 -145z m-1971 -562 c22 -38 55 -90 75 -117 l35 -50 -49
-28 c-52 -29 -86 -70 -75 -88 10 -16 21 -13 77 23 82 52 83 52 129 2 23 -24
75 -70 117 -102 73 -56 74 -58 46 -62 -16 -2 -70 2 -121 9 -51 7 -100 10 -109
6 -16 -6 -16 -8 0 -25 16 -18 14 -20 -48 -49 -100 -47 -104 -48 -112 -15 -3
15 -10 44 -14 63 -22 95 -33 216 -27 317 5 90 22 183 33 183 2 0 21 -30 43
-67z"/>
<path d="M1210 2309 c-74 -8 -128 -38 -183 -99 -133 -148 -89 -379 91 -471 39
-20 62 -24 132 -24 76 0 91 3 139 30 102 56 156 148 155 265 0 188 -149 321
-334 299z m121 -91 c52 -15 117 -73 140 -122 25 -54 24 -148 0 -201 -38 -83
-120 -135 -211 -135 -131 0 -229 100 -230 234 0 161 147 271 301 224z"/>
<path d="M1220 2092 c-114 -57 -73 -232 55 -232 37 0 52 6 81 33 67 61 53 162
-29 200 -44 21 -63 21 -107 -1z"/>
<path d="M1841 2080 c-73 -33 -118 -77 -152 -145 -72 -148 -21 -319 121 -399
50 -28 63 -31 145 -31 103 0 143 16 208 82 58 57 80 106 85 193 5 99 -20 168
-85 233 -83 83 -222 112 -322 67z m197 -89 c84 -43 133 -151 112 -246 -53
-239 -372 -244 -441 -7 -27 94 30 213 124 258 63 30 140 28 205 -5z"/>
<path d="M1844 1891 c-62 -38 -70 -129 -16 -184 59 -59 156 -39 188 40 45 106
-73 205 -172 144z"/>
<path d="M1465 1705 c-33 -32 -36 -107 -9 -204 l15 -54 50 49 c54 53 89 115
89 156 0 34 -51 78 -91 78 -18 0 -39 -10 -54 -25z"/>
</g>
</svg>
